<?xml version="1.0" standalone="no"?><svg xmlns="http://www.w3.org/2000/svg" viewBox="0 0 1440 320"><path fill="#3e4ea6" fill-opacity="1" d="M0,192L8.3,165.3C16.6,139,33,85,50,58.7C66.2,32,83,32,99,32C115.9,32,132,32,149,37.3C165.5,43,182,53,199,58.7C215.2,64,232,64,248,69.3C264.8,75,281,85,298,106.7C314.5,128,331,160,348,181.3C364.1,203,381,213,397,202.7C413.8,192,430,160,447,160C463.4,160,480,192,497,197.3C513.1,203,530,181,546,149.3C562.8,117,579,75,596,101.3C612.4,128,629,224,646,256C662.1,288,679,256,695,224C711.7,192,728,160,745,138.7C761.4,117,778,107,794,106.7C811,107,828,117,844,122.7C860.7,128,877,128,894,112C910.3,96,927,64,943,69.3C960,75,977,117,993,165.3C1009.7,213,1026,267,1043,272C1059.3,277,1076,235,1092,208C1109,181,1126,171,1142,160C1158.6,149,1175,139,1192,154.7C1208.3,171,1225,213,1241,208C1257.9,203,1274,149,1291,133.3C1307.6,117,1324,139,1341,138.7C1357.2,139,1374,117,1390,128C1406.9,139,1423,181,1432,202.7L1440,224L1440,0L1431.7,0C1423.4,0,1407,0,1390,0C1373.8,0,1357,0,1341,0C1324.1,0,1308,0,1291,0C1274.5,0,1258,0,1241,0C1224.8,0,1208,0,1192,0C1175.2,0,1159,0,1142,0C1125.5,0,1109,0,1092,0C1075.9,0,1059,0,1043,0C1026.2,0,1010,0,993,0C976.6,0,960,0,943,0C926.9,0,910,0,894,0C877.2,0,861,0,844,0C827.6,0,811,0,794,0C777.9,0,761,0,745,0C728.3,0,712,0,695,0C678.6,0,662,0,646,0C629,0,612,0,596,0C579.3,0,563,0,546,0C529.7,0,513,0,497,0C480,0,463,0,447,0C430.3,0,414,0,397,0C380.7,0,364,0,348,0C331,0,314,0,298,0C281.4,0,265,0,248,0C231.7,0,215,0,199,0C182.1,0,166,0,149,0C132.4,0,116,0,99,0C82.8,0,66,0,50,0C33.1,0,17,0,8,0L0,0Z"></path></svg>